<?xml version="1.0" standalone="no"?>
<!DOCTYPE svg PUBLIC "-//W3C//DTD SVG 20010904//EN"
 "http://www.w3.org/TR/2001/REC-SVG-20010904/DTD/svg10.dtd">
<svg version="1.0" xmlns="http://www.w3.org/2000/svg"
 width="1280.000000pt" height="1037.000000pt" viewBox="0 0 1280.000000 1037.000000"
 preserveAspectRatio="xMidYMid meet">
<metadata>
Created by potrace 1.15, written by Peter Selinger 2001-2017
</metadata>
<g transform="translate(0.000000,1037.000000) scale(0.100000,-0.100000)"
fill="#000000" stroke="none">
<path d="M12647 10269 c-11 -181 -72 -376 -184 -589 -75 -143 -125 -210 -229
-310 -156 -150 -353 -277 -659 -426 -238 -116 -707 -302 -737 -292 -5 2 26 32
68 68 158 135 297 299 350 415 22 47 26 67 22 121 -3 54 -8 68 -33 94 -72 76
-178 69 -657 -40 -780 -177 -1285 -361 -1778 -648 -533 -310 -1041 -785 -1386
-1297 -123 -183 -294 -479 -267 -462 6 4 64 80 129 170 319 439 470 632 560
717 240 226 911 707 1116 800 52 24 120 26 138 5 18 -22 14 -99 -9 -150 -31
-70 -96 -132 -186 -177 -163 -82 -426 -263 -615 -423 -137 -116 -239 -230
-339 -380 -252 -374 -318 -457 -460 -574 -99 -83 -180 -166 -327 -336 -77 -90
-158 -194 -173 -223 -12 -22 -11 -23 8 -13 11 6 53 47 93 92 123 135 295 285
444 384 180 120 233 177 312 332 34 66 81 146 105 179 165 224 621 639 807
735 65 33 151 33 184 -1 13 -14 25 -34 26 -45 8 -81 -29 -120 -170 -178 -143
-59 -236 -122 -361 -247 -117 -116 -198 -230 -284 -399 -98 -192 -220 -304
-709 -654 -346 -249 -434 -316 -551 -429 -188 -180 -314 -415 -401 -753 -31
-120 -78 -374 -71 -382 2 -2 39 84 82 190 174 427 264 612 352 719 150 184
495 464 934 758 405 272 492 357 684 665 173 278 287 365 643 489 272 94 371
112 842 151 168 14 351 33 407 41 185 27 441 107 683 214 280 123 662 341 705
402 33 48 -26 30 -234 -70 -329 -160 -540 -241 -781 -302 -292 -73 -451 -94
-725 -94 -195 0 -229 3 -300 22 -114 32 -177 66 -229 123 -51 57 -66 98 -66
182 0 143 121 336 284 451 217 154 667 286 1031 303 266 12 352 -43 256 -165
-59 -74 -160 -145 -316 -222 -153 -76 -285 -119 -374 -122 -71 -2 -99 7 -107
37 -13 50 53 125 155 175 66 33 271 90 321 90 61 0 39 41 -33 61 -23 7 -80 12
-127 12 -69 0 -103 -6 -180 -32 -225 -76 -437 -228 -496 -356 -41 -86 -28
-142 50 -213 99 -92 251 -132 496 -132 405 0 821 123 1250 369 255 146 576
367 783 538 45 38 77 59 77 50 0 -24 -111 -235 -175 -332 -42 -64 -109 -140
-230 -261 -249 -250 -392 -357 -649 -486 -522 -262 -912 -384 -1507 -473 -712
-106 -985 -248 -1278 -666 -53 -75 -132 -171 -180 -219 -134 -133 -359 -288
-711 -490 -249 -143 -376 -237 -537 -398 -303 -302 -569 -754 -723 -1228 -23
-70 -39 -128 -37 -131 3 -2 26 38 52 89 171 338 384 629 557 764 200 156 434
149 416 -11 -13 -111 -123 -286 -422 -674 -104 -135 -220 -293 -259 -351 -189
-286 -319 -651 -357 -1000 -17 -156 -1 -259 53 -344 60 -95 45 -260 -43 -474
-21 -53 -38 -98 -35 -100 5 -6 149 239 203 347 40 80 47 104 50 165 3 62 -1
85 -34 181 -34 98 -38 120 -38 205 0 105 26 220 93 428 84 255 204 518 273
597 103 117 152 -8 93 -241 -32 -128 -63 -208 -143 -374 -119 -249 -121 -400
-4 -400 103 0 290 196 406 426 84 166 115 282 163 604 l5 35 28 -33 c15 -19
40 -70 56 -115 22 -68 28 -104 32 -211 7 -199 -20 -312 -119 -506 -93 -183
-231 -378 -479 -680 -164 -199 -215 -270 -258 -355 -93 -187 -106 -394 -36
-571 38 -94 52 -99 42 -16 -11 82 -3 228 17 308 24 96 98 234 157 296 93 96
163 99 216 10 22 -39 26 -57 25 -117 -2 -141 -124 -430 -352 -829 -56 -98
-100 -180 -98 -182 2 -3 55 69 117 158 63 90 178 253 256 363 78 110 158 227
177 261 51 86 81 186 112 359 48 279 95 423 221 676 187 373 405 629 537 629
108 0 134 -93 69 -247 -29 -71 -104 -197 -261 -441 -174 -271 -233 -402 -252
-554 -24 -208 -119 -407 -335 -703 -47 -66 -91 -126 -96 -133 -7 -8 -7 -12 0
-12 16 0 186 172 289 291 162 190 284 375 488 744 94 170 106 186 205 286 155
156 305 246 427 257 48 4 55 2 84 -27 30 -31 31 -35 26 -91 -11 -103 -72 -253
-145 -355 -70 -98 -130 -160 -342 -348 -242 -215 -797 -765 -972 -962 -498
-563 -668 -814 -749 -1112 -21 -78 -40 -360 -20 -303 5 14 9 41 10 61 3 114
92 329 196 474 157 219 531 611 980 1024 255 235 334 298 557 437 216 135 263
168 361 252 210 179 465 553 517 759 24 93 27 251 6 350 -62 292 -276 598
-576 823 -201 150 -389 214 -705 239 -66 5 -128 13 -137 16 -30 12 -21 50 22
89 117 105 365 171 551 146 173 -24 307 -101 430 -247 190 -224 461 -436 737
-576 318 -162 571 -206 736 -129 82 38 153 109 190 186 26 55 39 136 24 151
-3 4 -34 -12 -67 -36 -51 -36 -70 -43 -120 -47 -51 -4 -67 -1 -104 22 -25 14
-65 48 -90 76 -153 170 -126 369 94 696 166 247 394 507 884 1004 198 202 408
421 467 488 637 722 1038 1493 1209 2321 57 276 81 657 60 925 -20 245 -69
502 -118 616 l-20 44 -6 -105z m-667 -2094 c0 -92 -187 -459 -384 -754 -213
-319 -413 -537 -597 -651 -232 -143 -468 -245 -635 -275 -128 -23 -218 -19
-407 19 -291 58 -445 73 -594 57 -198 -23 -309 -66 -473 -186 -249 -182 -521
-315 -899 -439 -171 -56 -515 -146 -561 -146 -24 0 -24 0 -5 19 11 10 153 110
315 221 541 371 702 502 993 805 278 288 476 439 757 579 246 122 447 180 748
215 373 45 640 128 1262 394 326 139 422 176 458 177 19 0 22 -5 22 -35z
m-2314 -1740 c49 -9 139 -29 199 -46 212 -59 375 -71 575 -45 58 8 107 13 108
11 13 -13 -328 -247 -512 -351 -252 -143 -550 -259 -798 -308 -196 -40 -345
-48 -643 -35 -226 10 -279 9 -408 -5 -171 -19 -270 -20 -405 -5 -107 11 -240
43 -269 64 -22 16 -44 9 223 74 330 79 626 182 845 292 45 22 141 78 213 123
146 93 219 132 330 176 165 65 364 85 542 55z m-1236 -885 c263 -15 530 -50
530 -69 0 -14 -81 -84 -148 -130 -138 -93 -410 -191 -532 -191 -118 0 -262 53
-403 149 -88 59 -262 220 -250 232 4 4 24 9 43 12 74 8 584 6 760 -3z"/>
<path d="M8553 10085 c-63 -32 -184 -157 -272 -280 -193 -274 -429 -730 -868
-1675 -295 -636 -917 -2020 -910 -2027 2 -2 28 50 57 114 848 1881 1293 2772
1560 3128 68 90 97 117 157 148 55 29 66 24 61 -27 -7 -62 -70 -181 -152 -289
-72 -95 -186 -251 -201 -276 -22 -38 72 51 177 166 312 341 454 581 386 650
-22 21 -93 21 -167 -1 -30 -9 -56 -15 -58 -13 -1 2 20 39 47 84 115 187 234
267 289 197 25 -32 26 -69 6 -148 -9 -33 -14 -61 -11 -63 9 -10 89 168 93 209
6 54 -7 82 -50 108 -43 27 -83 25 -144 -5z"/>
<path d="M4288 9510 c-66 -20 -128 -94 -128 -153 0 -36 27 -118 54 -162 l24
-39 -5 86 c-7 103 4 138 51 163 55 30 100 15 171 -59 33 -34 73 -85 88 -114
l28 -52 -76 0 c-123 0 -181 -37 -178 -114 3 -91 78 -207 236 -373 106 -109
266 -248 275 -238 6 6 -98 143 -154 205 -77 84 -154 226 -154 283 0 30 18 47
48 47 38 0 115 -47 154 -94 234 -279 633 -1137 1253 -2693 60 -150 110 -271
112 -269 8 7 -476 1230 -709 1790 -253 611 -437 1020 -560 1251 -208 387 -396
577 -530 535z"/>
<path d="M226 8597 c-82 -184 -161 -505 -203 -822 -21 -161 -24 -611 -5 -755
87 -664 308 -1197 698 -1685 123 -154 371 -398 554 -545 418 -338 628 -525
791 -706 283 -313 367 -525 289 -724 -45 -113 -166 -257 -252 -299 -58 -28
-105 -27 -173 4 l-56 24 -10 -26 c-12 -33 -3 -96 22 -144 43 -86 149 -137 264
-126 327 31 993 535 1431 1084 184 231 296 327 463 399 109 47 182 65 298 71
194 11 350 -47 314 -116 -12 -21 -9 -20 -156 -71 -310 -108 -499 -217 -712
-411 -284 -258 -539 -607 -653 -893 -94 -234 -107 -454 -36 -621 31 -72 168
-267 245 -348 131 -137 222 -191 485 -289 220 -81 306 -128 536 -293 811 -582
1040 -844 1043 -1198 1 -66 4 -82 11 -65 6 13 10 88 10 168 0 121 -3 158 -22
224 -64 222 -158 358 -472 680 -276 283 -679 616 -1051 866 -220 149 -301 225
-352 331 -65 132 -83 251 -49 319 68 136 349 92 538 -84 54 -49 82 -87 124
-162 216 -397 289 -504 454 -670 122 -123 252 -231 264 -220 6 6 -5 21 -79
112 -121 150 -199 283 -245 421 -20 58 -28 109 -33 208 -12 191 -39 253 -261
592 -129 196 -174 288 -178 372 -3 56 0 71 20 100 32 48 68 72 116 78 123 17
300 -164 442 -451 107 -217 149 -376 175 -666 17 -196 25 -230 65 -310 22 -43
301 -428 456 -628 52 -67 34 -19 -44 120 -214 379 -305 639 -273 782 15 67 64
143 109 169 106 61 248 -100 275 -312 9 -73 8 -109 -5 -202 -9 -63 -20 -123
-24 -133 -5 -12 -4 -17 3 -13 16 10 79 145 97 208 29 101 37 196 26 282 -22
159 -70 243 -248 434 -356 381 -488 594 -522 842 -23 171 31 420 122 563 16
27 34 45 39 42 5 -3 9 -49 9 -102 1 -118 13 -221 40 -327 61 -238 247 -469
389 -483 47 -4 53 -2 85 30 78 78 74 194 -14 388 -89 195 -130 390 -110 515
18 108 70 143 126 85 111 -113 274 -652 274 -903 0 -73 -1 -77 -89 -315 -39
-104 -41 -182 -8 -262 34 -82 187 -342 187 -318 0 2 -11 38 -25 79 -52 151
-67 279 -44 379 5 25 28 75 50 111 23 39 47 98 60 149 19 76 21 102 16 270 -6
202 -27 323 -88 509 -71 217 -143 332 -394 626 -271 317 -347 436 -353 557
l-4 69 44 43 c83 79 220 96 340 42 166 -74 333 -270 495 -581 40 -77 73 -132
73 -122 0 32 -48 208 -90 332 -149 434 -419 783 -743 959 -52 29 -176 77 -332
129 -508 170 -650 251 -795 452 -72 100 -184 206 -271 258 -78 46 -186 81
-298 98 -106 15 -441 6 -596 -16 -262 -37 -373 -47 -586 -52 -264 -7 -446 6
-697 48 -407 67 -577 134 -830 323 -184 139 -268 237 -351 411 -35 73 -57 135
-48 135 2 0 42 -23 88 -51 321 -194 762 -357 1094 -404 130 -19 418 -21 550
-5 285 35 541 119 707 232 119 80 208 196 208 271 0 103 -124 204 -317 259
-61 17 -105 22 -203 23 -119 0 -129 -2 -205 -33 -75 -32 -145 -75 -145 -90 0
-4 82 -7 182 -7 175 0 185 -1 233 -25 34 -17 56 -37 69 -61 19 -35 19 -38 3
-63 -24 -36 -64 -54 -148 -66 -140 -20 -365 18 -504 84 -77 38 -155 111 -155
145 0 33 56 86 120 115 143 64 382 106 657 113 273 8 462 -20 573 -84 70 -41
154 -127 186 -190 26 -52 29 -68 29 -153 0 -85 -3 -102 -27 -148 -57 -110
-153 -195 -307 -272 -229 -114 -612 -195 -981 -207 -282 -9 -475 13 -827 93
-167 38 -213 42 -213 20 0 -68 475 -212 840 -255 322 -38 405 -30 1105 103
269 52 405 62 618 47 374 -26 498 -86 631 -307 154 -255 260 -341 596 -479
393 -162 715 -345 875 -496 67 -64 83 -87 130 -184 53 -107 154 -372 211 -547
15 -49 32 -88 36 -88 18 0 -14 290 -49 450 -47 216 -139 407 -244 506 -87 82
-244 174 -510 300 -551 258 -638 321 -740 528 -60 121 -134 219 -217 289 -113
95 -212 138 -371 162 -127 19 -166 55 -141 130 26 77 121 125 212 105 150 -32
475 -247 673 -445 89 -88 117 -124 144 -180 18 -38 43 -90 55 -114 30 -63 103
-124 194 -161 198 -81 273 -127 461 -283 139 -116 145 -102 19 43 -124 142
-272 271 -383 335 -111 64 -165 123 -352 388 -59 84 -133 177 -163 209 -145
146 -537 344 -807 409 -81 19 -143 101 -143 191 0 96 67 131 193 99 242 -62
824 -346 1036 -505 57 -43 207 -218 440 -514 80 -100 146 -180 149 -178 7 8
-107 221 -172 318 -98 149 -201 270 -342 408 -368 358 -804 581 -1344 689
-340 68 -582 86 -1050 78 -771 -13 -940 -45 -1018 -192 -26 -48 -22 -150 7
-209 34 -69 145 -182 252 -258 140 -98 139 -90 19 -83 -159 9 -404 42 -568 75
-390 79 -671 208 -794 363 -50 64 -129 225 -167 343 -40 123 -55 236 -48 351
4 51 4 93 1 93 -3 0 -16 -24 -28 -53z m901 -1978 c619 -100 962 -116 1285 -60
260 45 454 50 649 16 326 -57 582 -187 854 -431 204 -184 393 -292 882 -508
287 -126 323 -145 301 -157 -27 -15 -419 -22 -588 -10 -372 26 -582 74 -830
191 -149 70 -222 86 -357 76 -183 -13 -395 -82 -723 -237 -232 -109 -320 -132
-510 -133 -124 0 -162 4 -265 28 -175 41 -321 95 -405 151 -198 132 -450 462
-610 798 -65 138 -89 205 -93 262 -2 33 2 41 23 52 32 17 79 13 387 -38z
m2388 -1038 c50 -10 152 -42 229 -70 289 -108 417 -126 899 -126 202 0 367 -2
367 -4 0 -18 -124 -85 -250 -136 -136 -55 -289 -97 -460 -126 -113 -19 -189
-40 -565 -156 -359 -110 -705 -129 -1055 -57 -209 43 -531 161 -674 248 l-39
23 71 7 c195 19 396 86 637 211 226 118 388 179 520 198 82 11 236 6 320 -12z
m1323 -463 c-59 -77 -221 -239 -314 -317 -114 -94 -226 -162 -326 -195 -147
-50 -419 -30 -570 41 -89 41 -131 78 -108 93 43 27 238 105 410 164 320 110
835 255 908 256 l34 0 -34 -42z"/>
<path d="M6477 6055 c-24 -50 -20 -58 4 -12 11 22 19 41 17 43 -3 2 -12 -12
-21 -31z"/>
<path d="M6442 5975 c-17 -37 -14 -45 4 -12 9 16 14 31 11 33 -2 2 -9 -7 -15
-21z"/>
<path d="M6220 5713 c-37 -25 -57 -53 -76 -99 -34 -89 -3 -128 97 -121 65 6
112 27 135 62 14 22 15 31 4 71 -26 91 -98 130 -160 87z"/>
<path d="M6195 5418 c-107 -93 -121 -268 -43 -553 l33 -120 -28 -52 c-34 -64
-72 -208 -93 -357 -36 -254 -30 -792 16 -1376 22 -274 29 -340 40 -340 18 0
121 614 174 1035 63 503 59 888 -12 1048 l-19 43 45 134 c51 153 82 291 82
366 0 165 -101 255 -195 172z"/>
</g>
</svg>
